<?xml version="1.0" encoding="UTF-8" standalone="no"?>
<!-- Created with Inkscape (http://www.inkscape.org/) -->

<svg
   width="147.74591mm"
   height="109.72108mm"
   viewBox="0 0 147.74591 109.72108"
   version="1.1"
   id="svg1"
   xml:space="preserve"
   inkscape:version="1.3 (0e150ed6c4, 2023-07-21)"
   sodipodi:docname="sight_logo_raw_black.svg"
   xmlns:inkscape="http://www.inkscape.org/namespaces/inkscape"
   xmlns:sodipodi="http://sodipodi.sourceforge.net/DTD/sodipodi-0.dtd"
   xmlns="http://www.w3.org/2000/svg"
   xmlns:svg="http://www.w3.org/2000/svg"><sodipodi:namedview
     id="namedview1"
     pagecolor="#ffffff"
     bordercolor="#999999"
     borderopacity="1"
     inkscape:showpageshadow="0"
     inkscape:pageopacity="0"
     inkscape:pagecheckerboard="0"
     inkscape:deskcolor="#d1d1d1"
     inkscape:document-units="mm"
     inkscape:zoom="1.0242632"
     inkscape:cx="354.40109"
     inkscape:cy="214.78854"
     inkscape:window-width="958"
     inkscape:window-height="1000"
     inkscape:window-x="953"
     inkscape:window-y="0"
     inkscape:window-maximized="0"
     inkscape:current-layer="layer1"><inkscape:page
       x="0"
       y="0"
       width="147.74591"
       height="109.72108"
       id="page2"
       margin="0 0 0"
       bleed="0" /></sodipodi:namedview><defs
     id="defs1" /><g
     inkscape:label="Layer 1"
     inkscape:groupmode="layer"
     id="layer1"><path
       style="font-variation-settings:normal;opacity:1;vector-effect:none;fill:#000000;fill-opacity:1;stroke-width:1.01068;stroke-linecap:butt;stroke-linejoin:miter;stroke-miterlimit:4;stroke-dasharray:none;stroke-dashoffset:0;stroke-opacity:1;-inkscape-stroke:none;stop-color:#000000;stop-opacity:1"
       d="m 80.832373,107.99172 c -0.669791,-0.63633 -1.060226,-1.8097 -0.951785,-2.8604 0.108658,-1.05285 1.243904,-3.69802 2.252859,-5.249287 0.449725,-0.691472 0.877826,-1.257212 0.951334,-1.257212 0.07347,0 0.18918,-0.0607 0.257055,-0.13481 0.07173,-0.0783 0.04587,-0.0902 -0.06172,-0.0283 -0.31091,0.17892 -0.209909,-0.0446 0.348638,-0.77137 0.293563,-0.38201 0.598407,-0.67625 0.677428,-0.65387 0.07901,0.0224 0.106831,-0.019 0.06179,-0.0918 -0.04504,-0.0729 0.589862,-0.87889 1.410863,-1.79118 l 1.492735,-1.6587 0.06384,-0.91519 c 0.03511,-0.50336 0.0893,-1.1698 0.12041,-1.48098 l 0.0566,-0.56578 -0.838842,0.79363 c -0.941185,0.89044 -1.689519,1.44863 -1.942108,1.44863 -0.09295,0 -0.328106,-0.15911 -0.522586,-0.35359 l -0.353597,-0.3536 -0.517097,0.35137 c -0.807869,0.54896 -1.886852,0.91993 -2.435955,0.83752 -0.61766,-0.0927 -0.948965,-0.57941 -0.972971,-1.42939 l -0.01825,-0.64618 -0.39958,0.28323 c -0.219776,0.15577 -0.619624,0.52183 -0.888559,0.81344 -0.268941,0.29162 -0.719506,0.62947 -1.001259,0.75078 -0.489208,0.21063 -0.524974,0.20489 -0.794307,-0.12758 -0.281266,-0.34719 -0.288442,-1.10165 -0.02093,-2.1993 0.08837,-0.36261 0.08221,-0.36108 -0.299484,0.0741 -0.214346,0.24436 -0.669025,1.02676 -1.010389,1.73867 -0.608037,1.26804 -0.868962,1.53242 -1.049103,1.06299 -0.159532,-0.41573 -0.09659,-0.92254 0.211726,-1.70473 0.165884,-0.42086 0.282508,-0.7821 0.259162,-0.80273 -0.02334,-0.0206 -0.209056,0.03 -0.412683,0.11253 -0.203627,0.0825 -0.50352,0.16919 -0.666422,0.19253 -0.688542,0.0987 -1.091206,0.38109 -1.539359,1.07947 -0.680044,1.05975 -1.650926,1.28703 -2.079237,0.48671 -0.256067,-0.47847 -0.185329,-1.52606 0.138962,-2.05795 0.162599,-0.26668 0.297756,-0.59989 0.300347,-0.74047 0.01461,-0.79209 1.188822,-1.16432 2.022683,-0.64117 0.38023,0.23855 0.481372,0.40967 0.518325,0.87696 l 0.04589,0.58059 0.996339,-0.2979 c 1.049351,-0.31376 1.206263,-0.49008 1.182419,-1.3287 -0.01551,-0.54568 0.506951,-0.56931 0.711177,-0.0322 l 0.142886,0.37581 0.458658,-0.33879 0.458659,-0.33878 0.283348,0.34961 c 0.340972,0.42071 0.359112,0.9534 0.06122,1.79774 -0.405956,1.15059 -0.281742,1.16404 0.900341,0.0974 1.11748,-1.00831 1.455451,-1.19147 1.829351,-0.99136 0.395902,0.21188 0.488234,0.60148 0.320004,1.35023 -0.0789,0.35115 -0.105591,0.69971 -0.05932,0.77457 0.182173,0.29477 1.395964,-0.0228 2.42603,-0.63477 1.025444,-0.60921 1.137567,-0.74433 1.5252,-1.83803 0.09415,-0.26566 0.112867,-0.26677 0.382766,-0.0225 0.156069,0.14124 0.354605,0.21302 0.441192,0.15951 0.2122,-0.13116 0.200675,0.11388 -0.01554,0.33008 -0.164174,0.16419 -0.560527,1.15584 -0.565281,1.41433 -0.003,0.19106 0.861929,-0.47361 1.936247,-1.48706 0.925327,-0.87292 1.347417,-1.09582 1.526457,-0.80612 0.042,0.0679 0.0181,0.85086 -0.0532,1.73995 -0.0712,0.88909 -0.11304,1.63288 -0.0931,1.65287 0.02,0.0199 0.59066,-0.43188 1.26816,-1.00412 2.29964,-1.94236 2.36834,-1.98832 2.61057,-1.7461 0.23333,0.23334 -0.17644,0.67088 -2.787,2.97596 -1.266,1.11787 -1.12371,0.73664 -1.44854,3.88092 -0.22579,2.18571 -0.65484,4.259169 -1.287844,6.223809 -1.165583,3.61763 -2.508329,5.25731 -4.305231,5.25731 -0.647945,0 -0.825159,-0.0676 -1.26055,-0.48131 z m 1.773283,-0.36188 c 0.599013,-0.27793 1.701384,-1.44938 2.100974,-2.23265 0.99385,-1.9481 2.079723,-6.029889 2.314228,-8.699129 0.05004,-0.56931 0.123057,-1.19157 0.16231,-1.3828 0.0392,-0.19124 0.0095,-0.32452 -0.06604,-0.29619 -0.221533,0.0831 -2.840772,3.25006 -3.703914,4.478532 -1.370295,1.950267 -2.371722,4.214217 -2.758277,6.235697 -0.21443,1.12134 -0.211861,1.20456 0.04797,1.55497 0.150974,0.20363 0.434417,0.3952 0.629878,0.42571 0.336606,0.0525 0.339734,0.0623 0.05919,0.18475 -0.205911,0.0899 -0.138207,0.10204 0.222142,0.0399 0.285078,-0.049 0.731283,-0.18809 0.99157,-0.30885 z m 1.645505,-1.01191 c -0.04564,-0.0456 -0.128403,0.0366 -0.184017,0.18265 -0.08037,0.21107 -0.06339,0.22808 0.0829,0.0829 0.101213,-0.10046 0.146713,-0.21996 0.101115,-0.26556 z m 1.793044,-3.62436 c -0.0053,-0.14646 -0.05148,-0.12125 -0.135423,0.0741 -0.174941,0.40712 -0.174941,0.64094 0,0.37023 0.07896,-0.12217 0.139897,-0.3221 0.135423,-0.44428 z m -4.445315,-0.99962 c 0.174572,-0.34617 0.284081,-0.6294 0.243356,-0.6294 -0.08418,0 -0.672439,1.11764 -0.672439,1.27758 0,0.16216 0.08578,0.0326 0.429083,-0.64818 z m 0.878551,-1.45312 c 0.07315,-0.0865 0.249619,-0.40305 0.392161,-0.703437 0.142543,-0.30038 0.318212,-0.546142 0.390378,-0.546142 0.07218,0 0.131223,-0.0867 0.131223,-0.19258 0,-0.10592 0.316543,-0.55693 0.703441,-1.00223 0.38689,-0.4453 0.789475,-0.97507 0.894631,-1.17728 0.312555,-0.601 -0.753938,0.64557 -1.568282,1.83309 -0.726503,1.059442 -1.740541,2.798759 -1.307131,2.242069 0.126822,-0.16291 0.290434,-0.36698 0.363579,-0.45349 z m 3.347127,-4.581679 c 0.302274,-0.28508 0.491272,-0.51833 0.420001,-0.51833 -0.07127,0 -0.35566,0.23325 -0.631965,0.51833 -0.276313,0.28508 -0.465312,0.51832 -0.420001,0.51832 0.04534,0 0.329691,-0.23324 0.631965,-0.51832 z m 1.026483,-1.17123 c 0.314466,-0.41229 0.338038,-0.49691 0.128644,-0.46164 -0.141018,0.0237 -0.241867,0.11125 -0.22411,0.19443 0.01774,0.0832 -0.06551,0.23243 -0.185116,0.33167 -0.197832,0.16419 -0.298764,0.44035 -0.160937,0.44035 0.03109,0 0.229736,-0.22717 0.441519,-0.50481 z m 3.989419,-3.54578 0.918,-0.86659 -1.08278,0.86659 c -0.59553,0.47663 -1.16198,0.86962 -1.25879,0.87331 -0.0968,0.004 -0.1613,0.0812 -0.14332,0.17215 0.018,0.091 -0.16632,0.23478 -0.40956,0.31957 -0.24324,0.0848 -0.42456,0.24058 -0.40293,0.34619 0.0216,0.10561 -0.0489,0.17371 -0.1568,0.15132 -0.10786,-0.0224 -0.15392,0.0276 -0.10233,0.11107 0.0516,0.0835 0.0232,0.15177 -0.063,0.15177 -0.0863,0 -0.15683,0.10411 -0.15683,0.23135 0,0.23133 0.92255,-0.52931 2.85838,-2.35673 z m -19.377844,1.07013 c 0.214217,-0.25459 0.370088,-0.47468 0.346379,-0.4891 -0.02373,-0.0145 -0.228546,-0.14229 -0.455183,-0.28416 l -0.412068,-0.25793 -0.226536,0.54218 c -0.410528,0.98253 0.06845,1.29591 0.747408,0.48901 z m 0.876344,-1.49936 c 0.13195,-0.49236 0.112085,-1.14772 -0.03476,-1.14772 -0.510644,0 -1.257722,1.22174 -0.849981,1.39003 0.429413,0.17723 0.799489,0.0759 0.884762,-0.24231 z m 22.3782,13.265759 c -0.21579,-0.32934 -0.24395,-0.59676 -0.16764,-1.59201 0.0504,-0.65789 0.22544,-1.69597 0.38885,-2.30686 0.52242,-1.952869 1.3324,-7.947629 1.33563,-9.885219 7.6e-4,-0.66139 0.0428,-0.77749 0.27935,-0.77749 0.59517,0 0.67823,0.3501 0.50324,2.12125 -0.10522,1.0649 -0.11267,1.73252 -0.021,1.87626 0.10382,0.16273 0.11611,0.12792 0.0454,-0.12861 -0.0658,-0.23862 -0.0443,-0.31916 0.067,-0.25042 0.0902,0.0557 0.16396,0.0268 0.16396,-0.0642 0,-0.0911 0.0659,-0.12485 0.1464,-0.0751 0.0856,0.0529 0.10776,-0.0102 0.0534,-0.15177 -0.0753,-0.19615 -0.11988,-0.20465 -0.23443,-0.0447 -0.10397,0.1452 -0.11812,0.12565 -0.0534,-0.0738 0.0485,-0.1492 0.088,-0.30307 0.088,-0.34195 0,-0.0389 0.0666,-0.0295 0.1481,0.0209 0.0815,0.0503 0.14911,0.005 0.15036,-0.10233 0.002,-0.14086 0.0416,-0.13313 0.14582,0.0283 0.19741,0.30545 0.18579,0.051 -0.0148,-0.3238 -0.0946,-0.17672 -0.10107,-0.26613 -0.0155,-0.21326 0.17001,0.10508 0.36847,-0.31185 0.24418,-0.51296 -0.0458,-0.0741 -0.015,-0.13473 0.0684,-0.13473 0.0834,0 0.22726,-0.14133 0.3197,-0.31406 0.13517,-0.25255 0.12969,-0.29033 -0.028,-0.19288 -0.10784,0.0666 0.11961,-0.20826 0.50543,-0.6109 0.42883,-0.44752 0.66894,-0.8169 0.61774,-0.95032 -0.0461,-0.12004 -0.038,-0.17249 0.018,-0.11655 0.0559,0.0559 0.26838,-0.0294 0.47208,-0.18963 0.49288,-0.3877 0.8603,-0.3673 1.29978,0.0722 0.69494,0.69494 0.32314,2.34558 -0.79665,3.53669 -0.65377,0.69542 -0.92484,0.78264 -1.23645,0.39782 -0.148,-0.18277 -0.26136,-0.50819 -0.25191,-0.72316 0.011,-0.25085 0.0414,-0.29802 0.0849,-0.13168 0.10202,0.39037 0.26595,0.32032 0.86629,-0.37024 0.64206,-0.73854 0.95684,-1.40686 0.95684,-2.03152 0,-0.67984 -0.35176,-0.56141 -1.07697,0.3626 -1.21266,1.54505 -2.41226,4.41068 -3.37407,8.06007 -0.24201,0.91824 -1.02841,5.790899 -1.02841,6.372179 0,0.30175 -0.41182,0.15534 -0.66958,-0.23804 z m -76.116718,-2.50335 c -0.433786,-0.32818 -0.416823,-2.424799 0.03048,-3.767779 0.176846,-0.53097 0.352753,-1.13075 0.390904,-1.33285 0.08022,-0.42493 0.468042,-1.20548 0.555801,-1.11863 0.0327,0.0324 0.06739,-0.11858 0.07708,-0.33544 0.0097,-0.21688 0.203364,-0.79416 0.430395,-1.28287 0.227031,-0.4887 0.413478,-0.97473 0.414326,-1.08004 8.34e-4,-0.10533 0.09386,-0.15607 0.206691,-0.11277 0.112833,0.0433 0.171202,0.0238 0.129711,-0.0433 -0.128699,-0.20824 0.157602,-0.98752 0.347016,-0.94455 0.09863,0.0224 0.13991,-0.0231 0.09172,-0.10107 -0.04818,-0.078 0.07965,-0.51995 0.284075,-0.98219 0.204427,-0.46225 0.328564,-0.91022 0.275861,-0.9955 -0.0527,-0.0853 -0.02987,-0.11428 0.05075,-0.0644 0.188271,0.11635 0.677023,-0.89709 0.544322,-1.12868 -0.05513,-0.0962 -0.04522,-0.12505 0.02203,-0.0641 0.150667,0.13662 1.006617,-1.32553 0.888167,-1.517181 -0.04686,-0.0758 0.04547,-0.26854 0.205175,-0.42825 0.381707,-0.3817 0.680639,-0.932394 0.633107,-1.166316 -0.02091,-0.102904 0.06469,-0.226507 0.190219,-0.274676 0.12553,-0.04822 0.191365,-0.147243 0.1463,-0.22016 -0.04506,-0.07294 -0.02597,-0.132573 0.04243,-0.132573 0.0684,0 0.204271,-0.211694 0.301933,-0.470432 l 0.177567,-0.470429 -0.527413,0.507445 c -0.582605,0.56056 -2.400018,2.806552 -3.518816,4.348632 -0.417523,0.57548 -0.927056,1.09124 -1.212585,1.22739 -0.452568,0.21583 -0.522952,0.21487 -0.868799,-0.0118 -1.08984,-0.71409 -1.20844,-3.045641 -0.341328,-6.710187 0.09953,-0.420646 0.214291,-0.785965 0.255016,-0.81182 0.04072,-0.02585 0.230428,0.06255 0.421562,0.196391 0.344691,0.241428 0.345621,0.24992 0.114531,1.044846 -0.470311,1.617811 -0.701558,3.031039 -0.695424,4.24997 0.0035,0.68691 0.06803,1.31066 0.143498,1.38613 0.326848,0.32685 1.189316,-0.51417 3.38563,-3.301458 0.545545,-0.692333 1.561366,-1.848275 2.257379,-2.568738 l 1.265478,-1.309953 0.352373,0.285336 c 0.473168,0.383144 0.413524,0.564848 -1.033688,3.149077 -1.925838,3.438896 -3.511142,6.654126 -4.208102,8.534676 -0.207375,0.55953 -0.435955,1.15062 -0.507955,1.31352 -0.072,0.16291 -0.310061,0.89596 -0.529026,1.62903 -0.218965,0.73306 -0.461802,1.49139 -0.539638,1.68519 -0.07784,0.19378 -0.112797,0.38107 -0.07769,0.41617 0.03511,0.0351 -0.02026,0.38261 -0.123034,0.772222 -0.102778,0.38961 -0.153849,1.052007 -0.113493,1.471997 0.04036,0.42 0.04824,0.76151 0.01751,0.75892 -0.03072,-0.003 -0.189148,-0.10555 -0.352051,-0.22879 z m 4.211177,-16.101964 0.360755,-0.473098 -0.471825,0.434952 c -0.490869,0.45252 -0.546888,0.53319 -0.360756,0.51946 0.06109,-0.005 0.27341,-0.2211 0.471826,-0.481314 z m 36.32867,10.522815 c -0.445414,-0.47654 -0.668939,-1.54558 -0.607241,-2.90421 l 0.05345,-1.17691 -0.671945,0.49326 c -1.211149,0.88906 -2.058669,0.87389 -2.475796,-0.0444 -0.137787,-0.30329 -0.266244,-0.57631 -0.285462,-0.60668 -0.01921,-0.0304 -0.454366,0.31076 -0.966997,0.7581 -1.670893,1.45804 -2.309065,1.5856 -2.758115,0.55127 l -0.247246,-0.56951 -0.855737,0.5339 c -0.874077,0.54534 -1.599424,0.68024 -1.922178,0.35749 -0.09703,-0.097 -0.211428,-0.51409 -0.254226,-0.9268 l -0.07782,-0.75038 -1.101499,0.97051 c -1.289265,1.13593 -1.847778,1.33782 -2.250905,0.81364 -0.35431,-0.46071 -0.342919,-0.6442 0.09891,-1.59334 0.534333,-1.14786 1.329136,-2.17075 1.856397,-2.38916 0.387482,-0.1605 0.534091,-0.15139 0.979046,0.0608 0.46657,0.22249 0.517162,0.3023 0.466529,0.73601 -0.05086,0.43566 -0.02228,0.47986 0.273747,0.42327 0.426183,-0.0815 0.551154,0.37325 0.367885,1.33859 -0.122811,0.6469 -0.110026,0.70344 0.159035,0.70344 0.160921,0 0.622049,-0.16547 1.02473,-0.36773 0.40268,-0.20225 0.682621,-0.28556 0.62209,-0.18511 -0.06053,0.10043 0.132553,-0.0728 0.429077,-0.38497 0.339038,-0.35692 0.656315,-0.9197 0.854864,-1.51634 0.339293,-1.01958 0.429235,-1.14216 0.710508,-0.96831 0.225876,0.13959 0.275532,1.12004 0.06986,1.37943 -0.196894,0.24832 -0.783904,1.84007 -0.783904,2.12565 0,0.1822 0.09589,0.17067 0.563085,-0.0676 0.491202,-0.2506 0.892213,-0.5692 2.508296,-1.99288 0.321131,-0.2829 0.341108,-0.28362 0.629396,-0.0228 0.199913,0.18092 0.297738,0.45653 0.297738,0.83887 0,0.52512 0.03231,0.56942 0.415285,0.56942 0.41525,0 1.58529,-0.64808 2.213368,-1.22598 0.183265,-0.16862 0.33321,-0.46157 0.33321,-0.651 0,-0.18943 0.0551,-0.34442 0.122445,-0.34442 0.06734,0 0.09171,-0.20939 0.05415,-0.46531 -0.0468,-0.31889 -0.01614,-0.43308 0.09746,-0.36287 0.115097,0.0711 0.138151,-0.0356 0.07543,-0.3492 -0.05398,-0.26992 -0.02887,-0.45164 0.06242,-0.45164 0.08401,0 0.115161,-0.14371 0.06923,-0.31935 -0.06081,-0.23252 -0.0326,-0.28787 0.103777,-0.20359 0.136797,0.0845 0.161435,0.0344 0.09139,-0.18639 -0.111394,-0.35097 0.04337,-1.098131 0.20657,-0.997251 0.06094,0.0377 0.106474,-0.11275 0.101172,-0.33424 -0.0053,-0.2215 0.0426,-0.617604 0.106466,-0.880246 l 0.116106,-0.477511 -1.005457,0.03321 c -0.794549,0.02623 -1.014255,-0.01334 -1.047402,-0.188899 -0.08381,-0.443832 0.210907,-0.606007 1.261353,-0.694073 l 1.055909,-0.08853 0.435501,-1.422835 c 0.239527,-0.782568 0.606709,-1.993768 0.815962,-2.691562 0.364837,-1.216612 0.881687,-2.206319 1.207974,-2.313124 0.08474,-0.02777 0.281289,0.0426 0.436764,0.156262 0.553959,0.405066 0.39385,1.813529 -0.58846,5.176651 -0.13856,0.47438 -0.227716,0.886723 -0.198126,0.916315 0.02959,0.02965 0.785479,0.09394 1.679749,0.142983 2.378956,0.13048 3.255638,0.281022 3.100292,0.532385 -0.04674,0.07559 -0.297593,0.132747 -0.5575,0.127023 -0.382245,-0.0084 -0.416456,-0.0323 -0.179004,-0.125074 0.211614,-0.08266 0.04624,-0.140784 -0.592376,-0.208252 -1.247594,-0.131792 -3.46612,-0.161354 -3.57977,-0.04769 -0.05238,0.05239 0.199088,0.102209 0.55883,0.110701 0.359743,0.0085 0.953967,0.03109 1.320497,0.05035 0.366531,0.01918 0.949648,0.04557 1.295813,0.05861 0.346172,0.01304 0.629397,0.07806 0.629397,0.144469 0,0.06642 -0.88369,0.09252 -1.963763,0.058 l -1.963764,-0.0627 -0.736699,2.200397 c -0.405184,1.210211 -1.010181,2.733521 -1.344437,3.385131 -0.765531,1.49235 -0.807461,1.67222 -0.821671,3.52487 -0.0082,1.06283 0.05762,1.68855 0.21777,2.07185 0.2606,0.6237 0.144762,0.70402 -0.311441,0.21594 z m -12.460187,-4.21108 c 0.669712,-0.6387 0.816971,-0.86295 0.760539,-1.15816 -0.06948,-0.36345 -0.07317,-0.36423 -0.512984,-0.10856 -0.446298,0.25943 -1.045045,1.02589 -1.510514,1.93358 l -0.251949,0.49133 0.342193,-0.18306 c 0.188207,-0.10068 0.715928,-0.53948 1.172715,-0.97513 z m 4.593769,-0.01 c 0.184208,-0.23488 0.17897,-0.24012 -0.05592,-0.056 -0.142539,0.11179 -0.259162,0.22841 -0.259162,0.25917 0,0.12189 0.121611,0.0434 0.315076,-0.20325 z M 61.329073,85.98475 c 0.178356,-0.489159 0.298233,-0.967542 0.266392,-1.063068 -0.05575,-0.167253 -1.308452,3.034259 -1.305398,3.336199 0.0021,0.20942 0.653177,-1.21495 1.039006,-2.273131 z m -0.160585,-1.034294 c 0.0048,-0.108598 -0.06948,-0.171378 -0.165095,-0.13951 -0.147927,0.04928 -0.996224,2.864215 -0.994133,3.298835 9.86e-4,0.20884 1.148574,-2.918708 1.159228,-3.159325 z m 0.944089,-3.024375 c 0.310813,-1.078784 0.594432,-2.261318 0.630264,-2.627847 l 0.06515,-0.666421 -0.239487,0.51833 c -0.239208,0.517721 -1.391272,4.322732 -1.391272,4.595057 0,0.07916 0.0833,0.143559 0.185116,0.143112 0.110117,-4.78e-4 0.41407,-0.795473 0.750229,-1.962231 z m 0.323657,0.381848 c 0.123319,-0.474289 0.284359,-1.06227 0.357866,-1.306625 0.210602,-0.700092 0.339905,-1.339714 0.253328,-1.253142 -0.0435,0.04349 -0.318531,0.87639 -0.61118,1.850859 -0.700239,2.33169 -0.727889,2.452366 -0.450848,1.967697 0.12464,-0.218045 0.327515,-0.784501 0.450834,-1.258789 z m 50.100746,13.762302 c -0.29012,-0.33779 -0.41319,-0.68884 -0.55807,-1.59199 -0.13521,-0.84281 0.0251,-3.47141 0.25398,-4.1638 0.24275,-0.73444 0.0191,-0.89685 -0.62869,-0.45664 -0.66363,0.45095 -1.67453,1.76202 -2.3336,3.0265 -0.26478,0.50802 -0.57655,0.96029 -0.69282,1.00507 -0.36124,0.13913 -0.67716,-0.33895 -0.67716,-1.02474 v -0.64044 l -0.44428,0.33298 c -0.24434,0.18313 -0.79102,0.50656 -1.21482,0.71873 -0.6105,0.30565 -0.84802,0.35631 -1.14358,0.24395 -0.37887,-0.14405 -0.49177,-0.411 -0.56347,-1.33238 l -0.04,-0.51364 -1.03232,0.937 c -1.47043,1.33464 -2.12555,1.53486 -2.45106,0.74904 -0.26051,-0.62894 -0.0284,-1.31911 0.87762,-2.60918 0.85037,-1.21087 1.3832,-1.52527 2.08931,-1.23279 0.45028,0.18651 0.69759,0.69126 0.53996,1.10204 -0.0554,0.14439 -0.0114,0.18767 0.13401,0.13185 0.11907,-0.0456 0.31953,0.002 0.44547,0.10697 0.21927,0.18199 0.20733,0.81207 -0.0314,1.65724 -0.16099,0.56988 1.07845,0.17464 2.25991,-0.72064 0.86817,-0.6579 0.8895,-0.68768 1.00366,-1.40161 0.0495,-0.3099 0.14796,-0.59921 0.21869,-0.64292 0.13044,-0.0806 0.79615,0.4133 0.70328,0.52179 -0.0277,0.0325 -0.0982,0.25713 -0.1565,0.49927 -0.10244,0.42554 -0.0965,0.43171 0.17629,0.1848 0.15526,-0.14052 0.31436,-0.2234 0.35356,-0.18421 0.0392,0.0392 0.36699,-0.24389 0.72844,-0.62907 l 0.65719,-0.70034 -0.70344,0.66023 c -0.38689,0.36313 -0.70345,0.5882 -0.70345,0.50017 0,-0.18571 1.25277,-1.37355 1.47762,-1.40105 0.21114,-0.0258 0.33419,-0.0638 0.63271,-0.19524 0.14253,-0.0628 0.35571,-0.0771 0.47372,-0.0318 0.23742,0.0911 0.2385,0.0883 0.61361,-1.56163 0.14265,-0.627411 0.31378,-1.107101 0.38031,-1.065991 0.0665,0.0412 0.0836,-0.0226 0.0379,-0.1416 -0.0456,-0.11901 -0.0159,-0.45928 0.066,-0.756174 l 0.14904,-0.53979 -1.02692,0.10119 -1.02693,0.101183 v -0.380628 c 0,-0.492655 0.11529,-0.552523 1.29053,-0.670159 l 0.98093,-0.09818 0.33525,-1.03665 c 0.18438,-0.570156 0.57599,-1.822031 0.87024,-2.781923 0.36787,-1.200089 0.6674,-1.893467 0.95889,-2.219696 0.41916,-0.46912 0.42737,-0.471291 0.73376,-0.194011 0.54184,0.490361 0.33372,2.256229 -0.64126,5.440887 l -0.2111,0.689536 1.72883,0.0968 c 2.08232,0.116589 3.41981,0.34639 3.12022,0.536085 -0.11365,0.07195 -0.40658,0.127197 -0.65093,0.122716 -0.36278,-0.0068 -0.39112,-0.02896 -0.15446,-0.121495 0.21984,-0.08598 0.11652,-0.137099 -0.42793,-0.211732 -1.01437,-0.139033 -1.56497,-0.122162 -1.56497,0.04799 0,0.0805 0.11663,0.136584 0.25917,0.124634 0.57072,-0.04784 1.36987,0.03169 1.36998,0.13628 8e-5,0.06111 -0.88293,0.11107 -1.96222,0.11107 h -1.96237 l -0.26759,0.888557 c -0.52328,1.737551 -1.17505,3.425461 -1.85376,4.800701 l -0.68823,1.39454 -0.002,1.86957 c -0.002,1.54265 0.0438,1.93974 0.26048,2.27077 0.20302,0.31018 0.21662,0.40118 0.06,0.40118 -0.11143,0 -0.30276,-0.11662 -0.42518,-0.25917 z m -9.47609,-4.25671 c 0.71506,-0.66202 0.86231,-0.87763 0.80481,-1.17844 -0.0676,-0.35374 -0.0868,-0.35966 -0.49064,-0.15085 -0.47943,0.24793 -0.99724,0.8917 -1.46309,1.81901 -0.31304,0.62315 -0.31362,0.6349 -0.0236,0.47967 0.16353,-0.0875 0.69116,-0.52374 1.17251,-0.96939 z m 3.65394,0.96334 c 0.0519,-0.0839 -0.008,-0.10877 -0.13936,-0.0582 -0.25655,0.0984 -0.30349,0.2046 -0.0905,0.2046 0.0767,0 0.18006,-0.0659 0.22983,-0.1464 z m 1.03771,-1.03834 c 0.14742,-0.1629 0.23472,-0.2962 0.19399,-0.2962 -0.0407,0 -0.19467,0.1333 -0.34209,0.2962 -0.14743,0.1629 -0.23472,0.29618 -0.194,0.29618 0.0407,0 0.19467,-0.13328 0.3421,-0.29618 z m 6.55697,-4.77601 c 0.64766,-1.500028 0.85055,-2.184378 0.64761,-2.184378 -0.0724,0 -0.21901,0.316552 -0.32577,0.703442 -0.10676,0.386895 -0.38198,1.162445 -0.61161,1.723446 -0.43399,1.0602 -0.45541,1.12735 -0.35961,1.12735 0.0318,0 0.32408,-0.61643 0.64938,-1.36986 z m -0.1988,-0.612551 c 0.29049,-0.802482 0.52815,-1.484436 0.52815,-1.515446 0,-0.03101 -0.1,-0.05641 -0.22214,-0.05641 -0.12217,0 -0.22213,0.03996 -0.22213,0.0888 0,0.04883 -0.16661,0.714966 -0.37024,1.480266 -0.56892,2.138221 -0.48694,2.139011 0.28636,0.003 z m 3.40868,-2.106032 c -0.42578,-0.107968 -1.84387,-0.139282 -1.84387,-0.04071 0,0.124462 1.6098,0.247178 1.84387,0.140559 0.089,-0.04049 0.089,-0.07727 0,-0.09984 z m -2.23765,-1.578275 c 0.44579,-1.429818 0.98891,-3.639816 0.97303,-3.959339 -0.0194,-0.391123 -0.4522,0.754505 -1.11716,2.957423 -0.35576,1.178594 -0.64684,2.161563 -0.64684,2.18437 0,0.02282 0.0921,0.04147 0.20469,0.04147 0.12689,0 0.34972,-0.46516 0.58628,-1.223912 z m 0.32705,0.409402 c 0.0206,-0.08145 0.17985,-0.67306 0.35402,-1.3147 0.17416,-0.64164 0.28511,-1.198159 0.24656,-1.236718 -0.0386,-0.03856 -0.14448,0.219853 -0.23539,0.574243 -0.0909,0.354385 -0.29521,1.040471 -0.45401,1.524631 -0.3073,0.936909 -0.38176,1.598664 -0.10924,0.970876 0.0884,-0.203631 0.17752,-0.436871 0.19806,-0.518332 z m 0.76026,-3.063671 c -0.0473,-0.11814 -0.0824,-0.08305 -0.0895,0.08947 -0.006,0.156112 0.0285,0.24358 0.0778,0.194375 0.0492,-0.0492 0.0544,-0.176945 0.0117,-0.283847 z M 36.287614,93.725751 c -0.106881,-0.12879 -0.189383,-0.56196 -0.183338,-0.96262 0.01152,-0.76384 -0.08653,-0.8829 -0.408049,-0.49548 -0.283369,0.34143 -1.254348,0.80368 -1.688189,0.80368 -0.444715,0 -0.923392,-0.43511 -1.054839,-0.95884 -0.05163,-0.2057 -0.124884,-0.374 -0.162792,-0.374 -0.03791,0 -0.501723,0.36717 -1.0307,0.81594 -1.271784,1.07893 -1.768814,1.33285 -2.212904,1.13051 -0.490695,-0.22357 -0.741794,-1.14965 -0.53385,-1.96889 0.08857,-0.34893 0.147776,-0.64491 0.131573,-0.65774 -0.0162,-0.0128 -0.395992,0.0998 -0.843973,0.25021 -0.447982,0.15045 -0.924804,0.27542 -1.059604,0.27771 -0.1348,0.002 -0.411121,0.28748 -0.614047,0.63375 -0.486985,0.83097 -0.896446,1.18456 -1.37175,1.18456 -0.917377,0 -1.352411,-1.1959 -0.831539,-2.2859 0.16793,-0.35142 0.350743,-0.82603 0.40625,-1.0547 0.05551,-0.22867 0.260635,-0.5204 0.455837,-0.6483 0.823429,-0.53953 2.251971,0.25056 2.072799,1.14642 l -0.08085,0.40426 0.843504,-0.22027 c 1.090673,-0.28481 1.322034,-0.41623 1.44629,-0.82154 0.169159,-0.55178 0.371305,-0.73226 0.603926,-0.5392 0.29315,0.24329 0.250884,0.69261 -0.164975,1.75375 -0.202106,0.51571 -0.410765,1.16846 -0.463687,1.45057 -0.09421,0.50219 -0.08886,0.50906 0.256396,0.32894 0.193939,-0.10117 0.684065,-0.42469 1.089168,-0.71893 0.405104,-0.29423 0.838276,-0.51559 0.962606,-0.49188 0.177821,0.0339 0.184159,0.0147 0.02971,-0.0898 -0.148353,-0.10044 -0.04728,-0.25099 0.413449,-0.61589 0.588305,-0.46596 0.620018,-0.47373 0.899791,-0.22054 0.192146,0.17389 0.289994,0.45457 0.289994,0.83186 0,0.52629 0.03172,0.56942 0.41889,0.56942 0.743808,0 2.691066,-1.48333 2.691066,-2.04993 0,-0.39914 0.252774,-0.53995 0.540556,-0.30111 0.167888,0.13933 0.211859,0.36538 0.160212,0.82358 l -0.07118,0.63154 0.289439,-0.36796 c 0.15919,-0.20238 0.339913,-0.33677 0.401606,-0.29864 0.145589,0.09 1.231319,-1.01943 1.113235,-1.13751 -0.129008,-0.129 0.505742,-0.44116 0.679151,-0.33398 0.07977,0.0493 0.145033,0.0191 0.145033,-0.0672 0,-0.22803 0.489251,-0.19202 0.82323,0.0606 0.219986,0.16639 0.235322,0.21917 0.06533,0.22484 -0.764484,0.0255 -2.3079,1.67594 -3.260218,3.48632 -0.595104,1.13132 -0.833156,1.30547 -1.192545,0.87243 z m -10.719713,-1.34246 c 0.462481,-0.49903 0.456117,-0.58912 -0.06048,-0.85627 -0.404405,-0.20912 -0.431299,-0.20225 -0.592372,0.15127 -0.245206,0.53816 -0.214401,1.09685 0.06047,1.09685 0.126067,0 0.392635,-0.17633 0.592373,-0.39185 z m 1.019363,-1.86937 c 0.180451,-0.73053 -0.03102,-0.9741 -0.55031,-0.63384 -0.350512,0.22967 -0.609773,0.9017 -0.44852,1.16262 0.04093,0.0662 0.251384,0.0999 0.467683,0.0749 0.317726,-0.0368 0.419756,-0.15273 0.531147,-0.60367 z m 96.927906,3.13243 c -0.11457,-0.21408 -0.14787,-0.68314 -0.0941,-1.32501 l 0.0833,-0.99361 -0.74533,0.50157 c -0.40993,0.27586 -0.80527,0.50157 -0.87853,0.50157 -0.0733,0 -0.11655,0.0748 -0.0962,0.16613 0.0588,0.26416 -1.2135,0.87052 -1.82669,0.87052 -1.49681,0 -1.57182,-2.11792 -0.13305,-3.75661 0.82914,-0.94432 1.65931,-1.22271 2.1219,-0.71155 0.34331,0.37935 0.30652,0.70506 -0.14677,1.29936 -0.5497,0.72069 -1.1349,1.10048 -1.78566,1.15887 -0.43877,0.0394 -0.57918,0.12506 -0.65648,0.40061 -0.16964,0.6047 -0.13922,0.68146 0.30524,0.77036 0.51839,0.10368 1.79293,-0.30691 3.04264,-0.98019 0.78465,-0.42272 0.90507,-0.54951 1.0705,-1.1272 0.10251,-0.35799 0.21954,-0.68404 0.26004,-0.72454 0.18448,-0.18449 0.52572,0.35348 0.53171,0.83823 l 0.007,0.53721 0.64664,-0.72148 c 0.62722,-0.6998 1.35449,-1.2748 1.61491,-1.2768 0.0701,-5.4e-4 3.3e-4,0.11565 -0.15507,0.25819 -0.1554,0.14254 -0.17944,0.19579 -0.0535,0.11834 0.12601,-0.0774 0.30773,-0.23372 0.40382,-0.34727 0.11889,-0.1405 0.31993,-0.17454 0.62939,-0.10656 0.41943,0.0921 0.64893,0.37252 0.30488,0.37252 -0.0824,0 -0.47812,0.21658 -0.87939,0.48129 -0.53013,0.34973 -0.96666,0.84568 -1.59676,1.81415 -0.47695,0.73306 -0.96651,1.53229 -1.08793,1.77607 -0.27535,0.55287 -0.65354,0.6407 -0.88627,0.20583 z m 2.09234,-3.27772 c 0.35667,-0.42762 0.53119,-0.68393 0.38782,-0.5696 -0.28805,0.22974 -1.20014,1.34709 -1.09962,1.34709 0.0348,0 0.35513,-0.34987 0.7118,-0.77749 z m -4.46376,-0.76389 c 0.19747,-0.21111 0.29743,-0.38281 0.22214,-0.38157 -0.18809,0.003 -0.37032,0.15024 -0.8033,0.64851 -0.3105,0.35734 -0.32245,0.40113 -0.0741,0.27149 0.16291,-0.085 0.45775,-0.32732 0.65521,-0.53843 z m -59.535127,3.71005 c -0.73033,-0.36411 -0.914401,-1.29532 -0.439982,-2.22587 0.158178,-0.31025 0.330575,-0.75977 0.383102,-0.99893 0.05253,-0.23916 0.25761,-0.54105 0.455738,-0.67086 0.828437,-0.54283 2.258019,0.24343 2.078119,1.14293 l -0.08085,0.40426 0.843502,-0.22027 c 0.974152,-0.25439 1.389902,-0.44995 1.556627,-0.73225 0.134993,-0.22857 0.382541,-0.2539 0.674347,-0.069 0.157165,0.0996 0.164105,0.20295 0.03219,0.47904 -0.1641,0.3434 -0.09042,0.26542 0.960124,-1.01626 0.256874,-0.31339 0.379806,-0.35445 0.790821,-0.26418 0.646965,0.1421 0.921576,0.75458 0.723989,1.61474 -0.07708,0.33556 -0.109224,0.89627 -0.07142,1.24603 0.07612,0.70437 -0.132604,0.781 -0.454595,0.1669 -0.13083,-0.24952 -0.159627,-0.69627 -0.09472,-1.46924 0.112565,-1.34033 0.09351,-1.32992 -1.272271,0.69535 -1.020284,1.51295 -1.293848,1.77762 -1.682939,1.62831 -0.278467,-0.10686 -0.333202,-1.02856 -0.09784,-1.64759 0.07944,-0.20894 0.123105,-0.37988 0.09704,-0.37988 -0.02608,0 -0.440932,0.13164 -0.921918,0.29254 -0.48099,0.16091 -0.984816,0.29418 -1.119617,0.29619 -0.134799,0.002 -0.41112,0.28695 -0.614046,0.63322 -0.615491,1.05026 -1.155424,1.38893 -1.74538,1.09481 z m 0.686378,-0.9315 c 0.462481,-0.49903 0.456117,-0.58912 -0.06047,-0.85627 -0.404407,-0.20912 -0.4313,-0.20225 -0.592374,0.15127 -0.245205,0.53816 -0.214401,1.09685 0.06047,1.09685 0.126066,0 0.392633,-0.17633 0.592374,-0.39185 z m 1.019363,-1.86937 c 0.180451,-0.73053 -0.03102,-0.9741 -0.550309,-0.63384 -0.350511,0.22967 -0.609773,0.9017 -0.448519,1.16262 0.04093,0.0662 0.251383,0.0999 0.467682,0.0749 0.317725,-0.0368 0.419756,-0.15273 0.531146,-0.60367 z m 5.030241,-0.61989 0.401057,-0.52582 -0.366354,0.16692 c -0.218488,0.0995 -0.334541,0.24982 -0.287536,0.37231 0.04965,0.12941 0.0045,0.17735 -0.122791,0.12961 -0.116999,-0.044 -0.272848,0.0783 -0.371371,0.29149 -0.151723,0.32826 -0.142359,0.35263 0.08808,0.22929 0.141817,-0.0759 0.43833,-0.37461 0.658911,-0.6638 z m 46.144995,2.95374 c -0.23569,-0.28398 -0.13004,-1.0674 0.29555,-2.19144 0.27214,-0.71875 0.3781,-0.85253 0.64502,-0.81437 0.24854,0.0356 0.31302,0.13734 0.29067,0.45893 l -0.0287,0.41327 0.29572,-0.33938 0.29572,-0.33936 -0.10156,0.37024 -0.10156,0.37023 0.33186,-0.29619 c 0.18251,-0.1629 0.46315,-0.48039 0.62362,-0.70554 l 0.29179,-0.40936 -0.37717,0.17185 c -0.20744,0.0945 -0.34201,0.22875 -0.29903,0.29829 0.043,0.0695 -0.0281,0.12644 -0.15795,0.12644 -0.1921,0 -0.20582,-0.0566 -0.0736,-0.30353 0.24731,-0.46209 0.80704,-0.66793 1.25784,-0.46253 0.48563,0.22127 0.66512,0.72164 0.54712,1.52527 -0.0523,0.35623 -0.0892,0.9309 -0.0821,1.27707 0.007,0.34616 -0.0428,0.62939 -0.11122,0.62939 -0.29624,0 -0.47844,-0.73129 -0.45182,-1.81336 0.0155,-0.63168 -0.002,-1.1485 -0.04,-1.1485 -0.0375,0 -0.46839,0.61643 -0.95748,1.36986 -1.33797,2.06114 -1.65711,2.33758 -2.09271,1.81272 z m -76.562993,-2.38536 c 0,-0.19137 0.861405,-1.02183 0.958842,-0.9244 0.04036,0.0403 -0.158875,0.29848 -0.442735,0.57361 -0.283859,0.27513 -0.516107,0.43299 -0.516107,0.35079 z"
       id="path1" /><path
       style="font-variation-settings:normal;opacity:1;vector-effect:none;fill:#000000;fill-opacity:1;stroke-width:1.01068;stroke-linecap:butt;stroke-linejoin:miter;stroke-miterlimit:4;stroke-dasharray:none;stroke-dashoffset:0;stroke-opacity:1;-inkscape-stroke:none;stop-color:#000000;stop-opacity:1"
       d="M 13.021765,75.479961 C 8.6748607,74.530242 6.0513397,71.583941 4.6930777,66.126554 4.0561877,63.567605 3.7290207,60.842501 3.4915017,56.118212 l -0.178477,-3.549658 4.653815,0.07338 4.6538063,0.07338 0.302082,4.81336 c 0.325196,5.181671 0.439272,5.877967 1.217545,7.431372 0.54984,1.097456 1.333015,1.526823 2.784917,1.526823 1.671209,0 2.742599,-0.651331 3.394083,-2.063385 0.545363,-1.182054 0.596978,-1.754356 0.67944,-7.534471 l 0.08924,-6.255258 -0.734046,-2.012623 C 19.748411,46.960979 19.295627,46.267185 17.76843,44.659437 16.750141,43.587442 14.814305,41.928107 13.466594,40.972035 8.6381737,37.546742 5.9027587,34.559545 4.6549037,31.349307 3.6298027,28.712112 3.4139507,26.96849 3.4102327,21.294777 3.4041327,12.671106 4.0806967,9.133101 6.3363307,5.983137 8.0999857,3.520217 10.09805,2.47762 14.458526,1.744929 c 2.687911,-0.451652 6.786519,-0.004 8.835631,0.965704 1.787357,0.845555 3.982713,3.14059 4.880915,5.102518 0.85181,1.8605893 1.85591,6.851521 2.107084,10.473273 l 0.190079,2.740944 h -4.714102 -4.714101 v -1.812026 c 0,-2.767054 -0.5006,-6.158671 -1.151892,-7.804198 -0.46558,-1.176316 -0.786642,-1.5792197 -1.55962,-1.957176 -2.030929,-0.993033 -4.315216,0.2947153 -5.040066,2.841313 -0.475544,1.670727 -0.681905,11.939427 -0.277006,13.784244 0.73441,3.346155 2.384212,5.284661 7.36006,8.647986 7.991451,5.401679 10.29677,9.9372 10.294597,20.253772 -0.001,7.311489 -0.827756,12.93048 -2.262476,15.386777 -1.002948,1.717099 -3.308105,3.718601 -5.020731,4.359383 -2.943048,1.101138 -7.31644,1.418677 -10.365133,0.752602 z m 49.749467,0.08004 C 56.795358,74.49419 54.016647,69.856976 53.088136,59.40046 52.619332,54.120981 52.610802,21.624583 53.077016,16.88245 53.725872,10.281942 55.253899,6.126374 57.764871,4.13343 c 1.665913,-1.322211 2.53349,-1.708098 5.012898,-2.22966 3.096029,-0.651262 6.869705,-0.375993 9.789862,0.714126 1.979066,0.738807 4.2578,3.230091 5.236705,5.725178 0.763925,1.947083 1.623604,6.65223 1.914477,10.478076 l 0.167738,2.206134 h -4.293196 c -3.205748,0 -4.31719,-0.0847 -4.38792,-0.334264 -0.05207,-0.183838 -0.22663,-1.898604 -0.387822,-3.81057 -0.161184,-1.911976 -0.416873,-3.911649 -0.568182,-4.443712 -0.708993,-2.4930217 -2.387184,-3.641274 -4.794235,-3.280311 -2.46364,0.3694473 -3.270252,2.280529 -3.783789,8.964809 -0.382026,4.972623 -0.180476,39.868692 0.24692,42.747969 0.608863,4.101874 1.708523,5.615588 4.079547,5.615588 1.496442,0 2.819585,-0.473904 3.519765,-1.260645 0.909076,-1.02146 1.269264,-3.902827 1.544879,-12.358422 0.145892,-4.475458 0.171075,-8.231374 0.05603,-8.346471 -0.115097,-0.115106 -1.471293,-0.243903 -3.013753,-0.286198 l -2.804487,-0.07692 v -3.610025 -3.610025 l 7.280728,-0.07119 7.280711,-0.07111 0.180351,0.718564 c 0.245807,0.979334 -0.119756,18.737085 -0.464298,22.554581 -0.449538,4.980888 -1.411575,8.802328 -2.74589,10.907384 -1.135007,1.790643 -3.116844,3.39535 -4.987923,4.038744 -2.004181,0.689151 -6.686917,0.970403 -9.072652,0.544894 z M 36.553745,38.676273 V 2.563431 l 4.612801,0.07317 4.612811,0.07317 v 35.966513 35.966505 l -4.612811,0.07313 -4.612801,0.07313 z M 85.935256,74.5982 C 85.712551,74.375487 85.696762,3.578961 85.919246,2.999044 c 0.139151,-0.362592 0.806928,-0.42298 4.677467,-0.42298 h 4.51515 l 0.069,15.309158 0.069,15.309164 h 4.27854 4.278547 l 0.069,-15.309164 0.069,-15.309158 h 4.67746 4.67746 v 36.100209 36.100205 h -4.67766 -4.67768 l -0.0688,-17.047325 -0.0688,-17.047317 h -4.278557 -4.27853 l -0.0688,17.047317 -0.0688,17.047325 h -4.49941 c -2.47466,0 -4.579614,-0.08021 -4.677667,-0.178278 z M 126.40314,42.821107 V 10.865744 h -4.54595 -4.54596 V 6.720902 2.576064 h 13.63785 13.63786 v 4.144838 4.144842 h -4.41225 -4.41225 v 31.955363 31.955371 h -4.67964 -4.67966 z"
       id="path2" /></g></svg>
